<?xml version="1.0" encoding="utf-8"?>
<!-- Generator: Adobe Illustrator 24.3.0, SVG Export Plug-In . SVG Version: 6.00 Build 0)  -->
<svg version="1.1" id="Layer_1" xmlns="http://www.w3.org/2000/svg" xmlns:xlink="http://www.w3.org/1999/xlink" x="0px" y="0px"
	 viewBox="0 0 330 109" style="enable-background:new 0 0 330 109;" xml:space="preserve">
<style type="text/css">
	.st0{fill:#2857A7;}
	.st1{clip-path:url(#SVGID_2_);fill:#2E5EAB;}
	.st2{clip-path:url(#SVGID_2_);fill:#2E5EAC;}
	.st3{clip-path:url(#SVGID_2_);fill:#2F5FAC;}
	.st4{clip-path:url(#SVGID_2_);fill:#2F60AD;}
	.st5{clip-path:url(#SVGID_2_);fill:#3060AD;}
	.st6{clip-path:url(#SVGID_2_);fill:#3061AD;}
	.st7{clip-path:url(#SVGID_2_);fill:#3062AE;}
	.st8{clip-path:url(#SVGID_2_);fill:#3162AE;}
	.st9{clip-path:url(#SVGID_2_);fill:#3163AE;}
	.st10{clip-path:url(#SVGID_4_);fill:#3263AF;}
	.st11{clip-path:url(#SVGID_4_);fill:#3264AF;}
	.st12{clip-path:url(#SVGID_4_);fill:#3365B0;}
	.st13{clip-path:url(#SVGID_4_);fill:#3466B0;}
	.st14{clip-path:url(#SVGID_6_);fill:#3466B1;}
	.st15{clip-path:url(#SVGID_6_);fill:#3467B1;}
	.st16{clip-path:url(#SVGID_6_);fill:#3567B2;}
	.st17{clip-path:url(#SVGID_6_);fill:#3568B2;}
	.st18{clip-path:url(#SVGID_6_);fill:#3669B2;}
	.st19{clip-path:url(#SVGID_6_);fill:#3669B3;}
	.st20{clip-path:url(#SVGID_6_);fill:#3466B0;}
	.st21{clip-path:url(#SVGID_6_);fill:#376AB3;}
	.st22{clip-path:url(#SVGID_8_);fill:#376AB3;}
	.st23{clip-path:url(#SVGID_8_);fill:#376BB4;}
	.st24{clip-path:url(#SVGID_8_);fill:#386BB4;}
	.st25{clip-path:url(#SVGID_8_);fill:#386CB4;}
	.st26{clip-path:url(#SVGID_8_);fill:#396CB5;}
	.st27{clip-path:url(#SVGID_8_);fill:#396DB5;}
	.st28{clip-path:url(#SVGID_8_);fill:#3A6DB6;}
	.st29{clip-path:url(#SVGID_8_);fill:#3A6EB6;}
	.st30{clip-path:url(#SVGID_8_);fill:#3A6FB6;}
	.st31{clip-path:url(#SVGID_8_);fill:#3B6FB7;}
	.st32{clip-path:url(#SVGID_8_);fill:#3B70B7;}
	.st33{clip-path:url(#SVGID_8_);fill:#3C70B7;}
	.st34{clip-path:url(#SVGID_10_);fill:#3C71B8;}
	.st35{clip-path:url(#SVGID_10_);fill:#3D72B8;}
	.st36{clip-path:url(#SVGID_10_);fill:#3C70B7;}
	.st37{clip-path:url(#SVGID_12_);fill:#3D72B8;}
	.st38{clip-path:url(#SVGID_12_);fill:#3D73B9;}
	.st39{clip-path:url(#SVGID_12_);fill:#3E73B9;}
	.st40{clip-path:url(#SVGID_12_);fill:#3E74BA;}
	.st41{clip-path:url(#SVGID_12_);fill:#3F75BA;}
	.st42{clip-path:url(#SVGID_12_);fill:#3F75BB;}
	.st43{clip-path:url(#SVGID_12_);fill:#4076BB;}
	.st44{clip-path:url(#SVGID_14_);fill:#4077BC;}
	.st45{clip-path:url(#SVGID_14_);fill:#4178BC;}
	.st46{clip-path:url(#SVGID_14_);fill:#4178BD;}
	.st47{clip-path:url(#SVGID_14_);fill:#4279BD;}
	.st48{clip-path:url(#SVGID_14_);fill:#427ABE;}
	.st49{clip-path:url(#SVGID_14_);fill:#4076BB;}
	.st50{clip-path:url(#SVGID_14_);fill:#437BBE;}
	.st51{clip-path:url(#SVGID_14_);fill:#437BBF;}
	.st52{clip-path:url(#SVGID_16_);fill:#457EC1;}
	.st53{clip-path:url(#SVGID_16_);fill:#467FC1;}
	.st54{clip-path:url(#SVGID_16_);fill:#4680C2;}
	.st55{clip-path:url(#SVGID_16_);fill:#4780C2;}
	.st56{clip-path:url(#SVGID_16_);fill:#4781C3;}
	.st57{clip-path:url(#SVGID_16_);fill:#4882C3;}
	.st58{clip-path:url(#SVGID_18_);fill:#4883C4;}
	.st59{clip-path:url(#SVGID_18_);fill:#4984C4;}
	.st60{clip-path:url(#SVGID_18_);fill:#4984C5;}
	.st61{clip-path:url(#SVGID_18_);fill:#4A85C5;}
	.st62{clip-path:url(#SVGID_20_);fill:#4A86C6;}
	.st63{clip-path:url(#SVGID_20_);fill:#4B87C6;}
	.st64{clip-path:url(#SVGID_20_);fill:#4B87C7;}
	.st65{clip-path:url(#SVGID_20_);fill:#4C88C7;}
	.st66{clip-path:url(#SVGID_20_);fill:#4C89C8;}
	.st67{clip-path:url(#SVGID_20_);fill:#4A85C5;}
	.st68{clip-path:url(#SVGID_20_);fill:#4D8AC8;}
	.st69{clip-path:url(#SVGID_20_);fill:#4D8AC9;}
	.st70{clip-path:url(#SVGID_22_);fill:#4D8BC9;}
	.st71{clip-path:url(#SVGID_22_);fill:#4E8CCA;}
	.st72{clip-path:url(#SVGID_22_);fill:#4F8DCB;}
	.st73{clip-path:url(#SVGID_22_);fill:#4F8ECB;}
	.st74{clip-path:url(#SVGID_22_);fill:#4F8ECC;}
	.st75{clip-path:url(#SVGID_24_);fill:#4F8ECC;}
	.st76{clip-path:url(#SVGID_24_);fill:#508FCC;}
	.st77{clip-path:url(#SVGID_24_);fill:#5090CC;}
	.st78{clip-path:url(#SVGID_24_);fill:#5190CD;}
	.st79{clip-path:url(#SVGID_24_);fill:#5191CD;}
	.st80{fill:#7E8284;}
	.st81{fill:#2E5EAB;}
</style>
<g>
	<g>
		<path class="st0" d="M111.3,55.5c-2.5,0-4.4-0.8-5.9-2.4c-1.4-1.6-1.9-3.6-1.4-5.9c0.5-2.3,1.8-4.3,3.9-5.9c2.1-1.6,4.5-2.4,7-2.4
			c1.5,0,2.8,0.3,4,0.9c1.2,0.6,2.1,1.4,2.7,2.4l-2,1.2c-0.5-0.8-1.1-1.5-2-1.9c-0.9-0.5-1.9-0.7-3-0.7c-1.9,0-3.6,0.6-5.3,1.9
			c-1.6,1.2-2.6,2.8-3,4.6c-0.4,1.8-0.1,3.3,1,4.6c1.1,1.3,2.5,1.9,4.3,1.9c1.7,0,3.1-0.4,4.3-1.3s2.1-2,2.6-3.4h-4.7l0.4-1.9h7.2
			l-0.1,0.7c-0.5,2.3-1.7,4.2-3.6,5.6C115.8,54.8,113.7,55.5,111.3,55.5z"/>
		<path class="st0" d="M131.5,44.5l-1,1.8c-0.5-0.3-1.1-0.4-1.7-0.4c-0.8,0-1.5,0.3-2.2,0.9c-0.6,0.6-1,1.4-1.2,2.3l-1.3,6.2H122
			l2.3-10.8h2.2l-0.2,1.1c1.1-0.9,2.2-1.4,3.4-1.4C130.3,44.1,131,44.2,131.5,44.5z"/>
		<path class="st0" d="M133.2,53.9c-1-1.1-1.3-2.5-1-4.1s1.2-2.9,2.7-4c1.5-1.1,3.1-1.7,4.8-1.7s3.1,0.6,4.1,1.7c1,1.1,1.4,2.5,1,4
			c-0.3,1.6-1.2,2.9-2.7,4c-1.5,1.1-3.1,1.7-4.8,1.7C135.6,55.5,134.3,55,133.2,53.9z M136.2,47c-1,0.8-1.6,1.7-1.8,2.8
			c-0.2,1.1,0,2,0.6,2.8c0.7,0.8,1.6,1.1,2.7,1.1c1.2,0,2.2-0.4,3.2-1.1c1-0.8,1.6-1.7,1.8-2.8s0-2-0.6-2.8
			c-0.7-0.8-1.6-1.1-2.7-1.1C138.2,45.9,137.2,46.3,136.2,47z"/>
		<path class="st0" d="M156,44.1h0.5l2,7.3l4.9-7.3l2,0.6l-7.6,10.8h-0.5l-2-7.5l-5.1,7.5h-0.5l-3-10.8l2.2-0.6l1.9,7.3L156,44.1z"
			/>
		<path class="st0" d="M169.9,44.4l-2.3,10.8h-2.2l2.3-10.8H169.9z M168.2,40.2c0.1-0.4,0.3-0.7,0.6-1c0.4-0.3,0.7-0.4,1.2-0.4
			c0.4,0,0.7,0.1,1,0.4c0.2,0.3,0.3,0.6,0.2,1c-0.1,0.4-0.3,0.7-0.7,1s-0.7,0.4-1.2,0.4c-0.4,0-0.7-0.1-1-0.4S168.1,40.6,168.2,40.2
			z"/>
		<path class="st0" d="M179.2,55.2l1.4-6.6c0.2-0.8,0.1-1.5-0.4-2c-0.5-0.5-1.1-0.7-1.8-0.7c-0.8,0-1.5,0.3-2.1,0.8
			c-0.6,0.5-1,1.1-1.2,1.9l-1.4,6.7h-2.2l2.3-10.8h2.2l-0.2,1c1.1-0.8,2.3-1.2,3.5-1.2c1.2,0,2.2,0.4,2.9,1.1
			c0.7,0.7,0.9,1.7,0.7,2.9l-1.5,7.1H179.2z"/>
		<path class="st0" d="M196.9,46l0.3-1.6h2.2l-2.2,10.5c-1,4.6-3.7,6.8-8.1,6.8c-2.2,0-3.8-0.9-4.7-2.6l1.9-1.1
			c0.6,1.3,1.7,1.9,3.2,1.9c3,0,4.9-1.6,5.5-4.8l0.3-1.5c-1.3,1.2-3,1.9-4.9,1.9c-1.7,0-3-0.5-4-1.6c-1-1.1-1.3-2.4-1-4.1
			c0.3-1.6,1.2-3,2.7-4.1c1.4-1.1,3-1.6,4.7-1.6C194.7,44.1,196.1,44.7,196.9,46z M187.5,49.8c-0.2,1.1,0,2,0.7,2.8
			c0.7,0.8,1.6,1.1,2.8,1.1s2.3-0.4,3.3-1.1c1-0.8,1.6-1.7,1.8-2.8c0.2-1.1,0-2-0.7-2.8c-0.7-0.8-1.6-1.1-2.8-1.1s-2.3,0.4-3.3,1.1
			C188.4,47.8,187.8,48.7,187.5,49.8z"/>
		<path class="st0" d="M208.2,52.2l2.1-1.2c0.2,0.8,0.5,1.4,1.1,1.9c0.6,0.5,1.3,0.7,2.1,0.7c0.9,0,1.8-0.3,2.4-0.8
			c0.7-0.5,1.1-1.2,1.3-2.1c0.2-0.8,0.1-1.6-0.3-2.1s-1.1-1.1-2.3-1.5c-1.3-0.5-2.2-1.1-2.7-1.9c-0.5-0.7-0.7-1.7-0.5-2.8
			c0.2-1.1,0.8-2,1.8-2.7s2.1-1.1,3.4-1.1c0.9,0,1.6,0.2,2.2,0.6c0.6,0.4,1.1,0.9,1.3,1.5l-1.9,1.1c-0.4-0.9-1.1-1.3-2.1-1.3
			c-0.6,0-1.2,0.2-1.6,0.5c-0.5,0.3-0.7,0.8-0.8,1.3c-0.1,0.6,0,1.1,0.3,1.6c0.3,0.4,1,0.9,2,1.2c1.5,0.6,2.5,1.3,3.1,2.2
			c0.5,0.9,0.7,1.9,0.4,3.2c-0.3,1.4-1,2.5-2.2,3.4c-1.2,0.9-2.6,1.3-4.3,1.3c-1.2,0-2.3-0.3-3.2-0.9S208.4,53.2,208.2,52.2z"/>
		<path class="st0" d="M222.4,46.2l0.4-1.8h2l0.7-3.1h2.2l-0.7,3.1h3l-0.4,1.8h-3l-1.9,9.1h-2.2l1.9-9.1H222.4z"/>
		<path class="st0" d="M241.8,46l0.3-1.6h2.2L242,55.2h-2.2l0.3-1.6c-1.3,1.2-3,1.9-4.9,1.9c-1.7,0-3-0.5-4-1.6
			c-1-1.1-1.3-2.4-1-4.1c0.3-1.6,1.2-3,2.7-4.1c1.4-1.1,3-1.6,4.7-1.6C239.6,44.1,241,44.7,241.8,46z M232.5,49.8
			c-0.2,1.1,0,2,0.7,2.8c0.7,0.8,1.6,1.1,2.8,1.1s2.3-0.4,3.3-1.1c1-0.8,1.6-1.7,1.8-2.8c0.2-1.1,0-2-0.7-2.8
			c-0.7-0.8-1.6-1.1-2.8-1.1s-2.3,0.4-3.3,1.1C233.3,47.8,232.7,48.7,232.5,49.8z"/>
		<path class="st0" d="M255.3,44.5l-1,1.8c-0.5-0.3-1.1-0.4-1.7-0.4c-0.8,0-1.5,0.3-2.2,0.9c-0.6,0.6-1,1.4-1.2,2.3l-1.3,6.2h-2.2
			l2.3-10.8h2.2l-0.2,1.1c1.1-0.9,2.2-1.4,3.4-1.4C254.1,44.1,254.8,44.2,255.3,44.5z"/>
		<path class="st0" d="M258.5,53.8c0.6,0,1-0.1,1.4-0.4c0.4-0.3,0.6-0.7,0.7-1.1c0.1-0.5,0-0.9-0.3-1.2c-0.3-0.3-0.8-0.6-1.5-0.9
			c-1.8-0.7-2.6-1.8-2.3-3.1c0.2-0.8,0.6-1.5,1.4-2c0.8-0.5,1.6-0.8,2.5-0.8c0.6,0,1.2,0.1,1.6,0.4c0.5,0.3,0.8,0.7,1,1.2l-1.7,1
			c-0.2-0.6-0.6-0.9-1.3-0.9c-0.4,0-0.7,0.1-0.9,0.3c-0.3,0.2-0.4,0.4-0.5,0.7c-0.1,0.4,0,0.7,0.3,0.9c0.3,0.3,0.7,0.5,1.4,0.8
			c2,0.8,2.8,2,2.5,3.5c-0.2,1-0.7,1.8-1.6,2.5c-0.8,0.6-1.9,1-3.2,1c-0.8,0-1.5-0.2-2.2-0.6c-0.6-0.4-1.1-1-1.3-1.8l1.9-1.1
			C256.9,53.2,257.5,53.8,258.5,53.8z"/>
	</g>
	<g>
		<g>
			<g>
				<defs>
					<path id="SVGID_1_" d="M111.3,55.5c-2.5,0-4.4-0.8-5.9-2.4c-1.4-1.6-1.9-3.6-1.4-5.9c0.5-2.3,1.8-4.3,3.9-5.9
						c2.1-1.6,4.5-2.4,7-2.4c1.5,0,2.8,0.3,4,0.9c1.2,0.6,2.1,1.4,2.7,2.4l-2,1.2c-0.5-0.8-1.1-1.5-2-1.9c-0.9-0.5-1.9-0.7-3-0.7
						c-1.9,0-3.6,0.6-5.3,1.9c-1.6,1.2-2.6,2.8-3,4.6c-0.4,1.8-0.1,3.3,1,4.6c1.1,1.3,2.5,1.9,4.3,1.9c1.7,0,3.1-0.4,4.3-1.3
						s2.1-2,2.6-3.4h-4.7l0.4-1.9h7.2l-0.1,0.7c-0.5,2.3-1.7,4.2-3.6,5.6C115.8,54.8,113.7,55.5,111.3,55.5z"/>
				</defs>
				<clipPath id="SVGID_2_">
					<use xlink:href="#SVGID_1_"  style="overflow:visible;"/>
				</clipPath>
				<rect x="103.6" y="38.8" class="st1" width="0.3" height="16.8"/>
				<rect x="103.9" y="38.8" class="st1" width="1.8" height="16.8"/>
				<rect x="105.7" y="38.8" class="st2" width="1.8" height="16.8"/>
				<rect x="107.4" y="38.8" class="st3" width="1.8" height="16.8"/>
				<rect x="109.2" y="38.8" class="st3" width="1.8" height="16.8"/>
				<rect x="111" y="38.8" class="st4" width="1.8" height="16.8"/>
				<rect x="112.8" y="38.8" class="st5" width="1.8" height="16.8"/>
				<rect x="114.6" y="38.8" class="st6" width="1.8" height="16.8"/>
				<rect x="116.4" y="38.8" class="st7" width="1.8" height="16.8"/>
				<rect x="118.2" y="38.8" class="st8" width="1.8" height="16.8"/>
				<rect x="120" y="38.8" class="st9" width="1.7" height="16.8"/>
			</g>
		</g>
		<g>
			<g>
				<defs>
					<path id="SVGID_3_" d="M131.5,44.5l-1,1.8c-0.5-0.3-1.1-0.4-1.7-0.4c-0.8,0-1.5,0.3-2.2,0.9c-0.6,0.6-1,1.4-1.2,2.3l-1.3,6.2
						H122l2.3-10.8h2.2l-0.2,1.1c1.1-0.9,2.2-1.4,3.4-1.4C130.3,44.1,131,44.2,131.5,44.5z"/>
				</defs>
				<clipPath id="SVGID_4_">
					<use xlink:href="#SVGID_3_"  style="overflow:visible;"/>
				</clipPath>
				<rect x="122" y="44.1" class="st10" width="1.5" height="11.1"/>
				<rect x="123.6" y="44.1" class="st11" width="1.8" height="11.1"/>
				<rect x="125.3" y="44.1" class="st11" width="1.8" height="11.1"/>
				<rect x="127.1" y="44.1" class="st12" width="1.8" height="11.1"/>
				<rect x="128.9" y="44.1" class="st12" width="1.8" height="11.1"/>
				<rect x="130.7" y="44.1" class="st13" width="0.8" height="11.1"/>
			</g>
		</g>
		<g>
			<g>
				<defs>
					<path id="SVGID_5_" d="M133.2,53.9c-1-1.1-1.3-2.5-1-4.1s1.2-2.9,2.7-4c1.5-1.1,3.1-1.7,4.8-1.7s3.1,0.6,4.1,1.7
						c1,1.1,1.4,2.5,1,4c-0.3,1.6-1.2,2.9-2.7,4c-1.5,1.1-3.1,1.7-4.8,1.7C135.6,55.5,134.3,55,133.2,53.9z M136.2,47
						c-1,0.8-1.6,1.7-1.8,2.8c-0.2,1.1,0,2,0.6,2.8c0.7,0.8,1.6,1.1,2.7,1.1c1.2,0,2.2-0.4,3.2-1.1c1-0.8,1.6-1.7,1.8-2.8
						s0-2-0.6-2.8c-0.7-0.8-1.6-1.1-2.7-1.1C138.2,45.9,137.2,46.3,136.2,47z"/>
				</defs>
				<clipPath id="SVGID_6_">
					<use xlink:href="#SVGID_5_"  style="overflow:visible;"/>
				</clipPath>
				<rect x="134.2" y="45.9" class="st14" width="0.1" height="7.9"/>
				<rect x="134.3" y="45.9" class="st15" width="1.8" height="7.9"/>
				<rect x="136.1" y="45.9" class="st16" width="1.8" height="7.9"/>
				<rect x="137.9" y="45.9" class="st17" width="1.8" height="7.9"/>
				<rect x="139.7" y="45.9" class="st18" width="1.8" height="7.9"/>
				<rect x="141.5" y="45.9" class="st19" width="1.6" height="7.9"/>
				<rect x="131.9" y="44.1" class="st20" width="0.6" height="11.4"/>
				<rect x="132.5" y="44.1" class="st14" width="1.8" height="11.4"/>
				<rect x="134.3" y="44.1" class="st15" width="1.8" height="11.4"/>
				<rect x="136.1" y="44.1" class="st16" width="1.8" height="11.4"/>
				<rect x="137.9" y="44.1" class="st17" width="1.8" height="11.4"/>
				<rect x="139.7" y="44.1" class="st18" width="1.8" height="11.4"/>
				<rect x="141.5" y="44.1" class="st19" width="1.8" height="11.4"/>
				<rect x="143.3" y="44.1" class="st21" width="1.8" height="11.4"/>
				<rect x="145" y="44.1" class="st21" width="0.2" height="11.4"/>
			</g>
		</g>
		<g>
			<g>
				<defs>
					<path id="SVGID_7_" d="M156,44.1h0.5l2,7.3l4.9-7.3l2,0.6l-7.6,10.8h-0.5l-2-7.5l-5.1,7.5h-0.5l-3-10.8l2.2-0.6l1.9,7.3
						L156,44.1z"/>
				</defs>
				<clipPath id="SVGID_8_">
					<use xlink:href="#SVGID_7_"  style="overflow:visible;"/>
				</clipPath>
				<rect x="146.8" y="44.1" class="st22" width="0.1" height="11.4"/>
				<rect x="146.8" y="44.1" class="st23" width="1.8" height="11.4"/>
				<rect x="148.6" y="44.1" class="st24" width="1.8" height="11.4"/>
				<rect x="150.4" y="44.1" class="st25" width="1.8" height="11.4"/>
				<rect x="152.2" y="44.1" class="st26" width="1.8" height="11.4"/>
				<rect x="154" y="44.1" class="st27" width="1.8" height="11.4"/>
				<rect x="155.8" y="44.1" class="st28" width="1.8" height="11.4"/>
				<rect x="157.6" y="44.1" class="st29" width="1.8" height="11.4"/>
				<rect x="159.4" y="44.1" class="st30" width="1.8" height="11.4"/>
				<rect x="161.2" y="44.1" class="st31" width="1.8" height="11.4"/>
				<rect x="162.9" y="44.1" class="st32" width="1.8" height="11.4"/>
				<rect x="164.7" y="44.1" class="st33" width="0.7" height="11.4"/>
			</g>
		</g>
		<g>
			<g>
				<defs>
					<path id="SVGID_9_" d="M169.9,44.4l-2.3,10.8h-2.2l2.3-10.8H169.9z M168.2,40.2c0.1-0.4,0.3-0.7,0.6-1c0.4-0.3,0.7-0.4,1.2-0.4
						c0.4,0,0.7,0.1,1,0.4c0.2,0.3,0.3,0.6,0.2,1c-0.1,0.4-0.3,0.7-0.7,1s-0.7,0.4-1.2,0.4c-0.4,0-0.7-0.1-1-0.4
						S168.1,40.6,168.2,40.2z"/>
				</defs>
				<clipPath id="SVGID_10_">
					<use xlink:href="#SVGID_9_"  style="overflow:visible;"/>
				</clipPath>
				<rect x="168.1" y="38.8" class="st34" width="0.2" height="2.8"/>
				<rect x="168.3" y="38.8" class="st34" width="1.8" height="2.8"/>
				<rect x="170.1" y="38.8" class="st35" width="1.2" height="2.8"/>
				<rect x="165.5" y="44.4" class="st36" width="1.1" height="10.8"/>
				<rect x="166.5" y="44.4" class="st34" width="1.8" height="10.8"/>
				<rect x="168.3" y="44.4" class="st34" width="1.6" height="10.8"/>
			</g>
		</g>
		<g>
			<g>
				<defs>
					<path id="SVGID_11_" d="M179.2,55.2l1.4-6.6c0.2-0.8,0.1-1.5-0.4-2c-0.5-0.5-1.1-0.7-1.8-0.7c-0.8,0-1.5,0.3-2.1,0.8
						c-0.6,0.5-1,1.1-1.2,1.9l-1.4,6.7h-2.2l2.3-10.8h2.2l-0.2,1c1.1-0.8,2.3-1.2,3.5-1.2c1.2,0,2.2,0.4,2.9,1.1
						c0.7,0.7,0.9,1.7,0.7,2.9l-1.5,7.1H179.2z"/>
				</defs>
				<clipPath id="SVGID_12_">
					<use xlink:href="#SVGID_11_"  style="overflow:visible;"/>
				</clipPath>
				<rect x="171.5" y="44.1" class="st37" width="0.4" height="11.1"/>
				<rect x="171.9" y="44.1" class="st38" width="1.8" height="11.1"/>
				<rect x="173.7" y="44.1" class="st39" width="1.8" height="11.1"/>
				<rect x="175.5" y="44.1" class="st40" width="1.8" height="11.1"/>
				<rect x="177.3" y="44.1" class="st40" width="1.8" height="11.1"/>
				<rect x="179.1" y="44.1" class="st41" width="1.8" height="11.1"/>
				<rect x="180.9" y="44.1" class="st42" width="1.8" height="11.1"/>
				<rect x="182.6" y="44.1" class="st43" width="0.5" height="11.1"/>
			</g>
		</g>
		<g>
			<g>
				<defs>
					<path id="SVGID_13_" d="M196.9,46l0.3-1.6h2.2l-2.2,10.5c-1,4.6-3.7,6.8-8.1,6.8c-2.2,0-3.8-0.9-4.7-2.6l1.9-1.1
						c0.6,1.3,1.7,1.9,3.2,1.9c3,0,4.9-1.6,5.5-4.8l0.3-1.5c-1.3,1.2-3,1.9-4.9,1.9c-1.7,0-3-0.5-4-1.6c-1-1.1-1.3-2.4-1-4.1
						c0.3-1.6,1.2-3,2.7-4.1c1.4-1.1,3-1.6,4.7-1.6C194.7,44.1,196.1,44.7,196.9,46z M187.5,49.8c-0.2,1.1,0,2,0.7,2.8
						c0.7,0.8,1.6,1.1,2.8,1.1s2.3-0.4,3.3-1.1c1-0.8,1.6-1.7,1.8-2.8c0.2-1.1,0-2-0.7-2.8c-0.7-0.8-1.6-1.1-2.8-1.1
						s-2.3,0.4-3.3,1.1C188.4,47.8,187.8,48.7,187.5,49.8z"/>
				</defs>
				<clipPath id="SVGID_14_">
					<use xlink:href="#SVGID_13_"  style="overflow:visible;"/>
				</clipPath>
				<rect x="187.3" y="45.9" class="st44" width="0.7" height="7.9"/>
				<rect x="188" y="45.9" class="st45" width="1.8" height="7.9"/>
				<rect x="189.8" y="45.9" class="st46" width="1.8" height="7.9"/>
				<rect x="191.6" y="45.9" class="st47" width="1.8" height="7.9"/>
				<rect x="193.4" y="45.9" class="st47" width="1.8" height="7.9"/>
				<rect x="195.2" y="45.9" class="st48" width="1.1" height="7.9"/>
				<rect x="184.3" y="44.1" class="st49" width="0.2" height="17.6"/>
				<rect x="184.4" y="44.1" class="st49" width="1.8" height="17.6"/>
				<rect x="186.2" y="44.1" class="st44" width="1.8" height="17.6"/>
				<rect x="188" y="44.1" class="st45" width="1.8" height="17.6"/>
				<rect x="189.8" y="44.1" class="st46" width="1.8" height="17.6"/>
				<rect x="191.6" y="44.1" class="st47" width="1.8" height="17.6"/>
				<rect x="193.4" y="44.1" class="st47" width="1.8" height="17.6"/>
				<rect x="195.2" y="44.1" class="st48" width="1.8" height="17.6"/>
				<rect x="197" y="44.1" class="st50" width="1.8" height="17.6"/>
				<rect x="198.8" y="44.1" class="st51" width="0.6" height="17.6"/>
			</g>
		</g>
		<g>
			<g>
				<defs>
					<path id="SVGID_15_" d="M208.2,52.2l2.1-1.2c0.2,0.8,0.5,1.4,1.1,1.9c0.6,0.5,1.3,0.7,2.1,0.7c0.9,0,1.8-0.3,2.4-0.8
						c0.7-0.5,1.1-1.2,1.3-2.1c0.2-0.8,0.1-1.6-0.3-2.1s-1.1-1.1-2.3-1.5c-1.3-0.5-2.2-1.1-2.7-1.9c-0.5-0.7-0.7-1.7-0.5-2.8
						c0.2-1.1,0.8-2,1.8-2.7s2.1-1.1,3.4-1.1c0.9,0,1.6,0.2,2.2,0.6c0.6,0.4,1.1,0.9,1.3,1.5l-1.9,1.1c-0.4-0.9-1.1-1.3-2.1-1.3
						c-0.6,0-1.2,0.2-1.6,0.5c-0.5,0.3-0.7,0.8-0.8,1.3c-0.1,0.6,0,1.1,0.3,1.6c0.3,0.4,1,0.9,2,1.2c1.5,0.6,2.5,1.3,3.1,2.2
						c0.5,0.9,0.7,1.9,0.4,3.2c-0.3,1.4-1,2.5-2.2,3.4c-1.2,0.9-2.6,1.3-4.3,1.3c-1.2,0-2.3-0.3-3.2-0.9S208.4,53.2,208.2,52.2z"/>
				</defs>
				<clipPath id="SVGID_16_">
					<use xlink:href="#SVGID_15_"  style="overflow:visible;"/>
				</clipPath>
				<rect x="208.2" y="38.8" class="st52" width="1.3" height="16.8"/>
				<rect x="209.5" y="38.8" class="st53" width="1.8" height="16.8"/>
				<rect x="211.3" y="38.8" class="st53" width="1.8" height="16.8"/>
				<rect x="213.1" y="38.8" class="st54" width="1.8" height="16.8"/>
				<rect x="214.9" y="38.8" class="st55" width="1.8" height="16.8"/>
				<rect x="216.7" y="38.8" class="st56" width="1.8" height="16.8"/>
				<rect x="218.5" y="38.8" class="st57" width="1.7" height="16.8"/>
			</g>
		</g>
		<g>
			<g>
				<defs>
					<path id="SVGID_17_" d="M222.4,46.2l0.4-1.8h2l0.7-3.1h2.2l-0.7,3.1h3l-0.4,1.8h-3l-1.9,9.1h-2.2l1.9-9.1H222.4z"/>
				</defs>
				<clipPath id="SVGID_18_">
					<use xlink:href="#SVGID_17_"  style="overflow:visible;"/>
				</clipPath>
				<rect x="222.4" y="41.4" class="st58" width="1.5" height="13.9"/>
				<rect x="223.8" y="41.4" class="st59" width="1.8" height="13.9"/>
				<rect x="225.6" y="41.4" class="st60" width="1.8" height="13.9"/>
				<rect x="227.4" y="41.4" class="st61" width="1.8" height="13.9"/>
				<rect x="229.2" y="41.4" class="st61" width="0.6" height="13.9"/>
			</g>
		</g>
		<g>
			<g>
				<defs>
					<path id="SVGID_19_" d="M241.8,46l0.3-1.6h2.2L242,55.2h-2.2l0.3-1.6c-1.3,1.2-3,1.9-4.9,1.9c-1.7,0-3-0.5-4-1.6
						c-1-1.1-1.3-2.4-1-4.1c0.3-1.6,1.2-3,2.7-4.1c1.4-1.1,3-1.6,4.7-1.6C239.6,44.1,241,44.7,241.8,46z M232.5,49.8
						c-0.2,1.1,0,2,0.7,2.8c0.7,0.8,1.6,1.1,2.8,1.1s2.3-0.4,3.3-1.1c1-0.8,1.6-1.7,1.8-2.8c0.2-1.1,0-2-0.7-2.8
						c-0.7-0.8-1.6-1.1-2.8-1.1s-2.3,0.4-3.3,1.1C233.3,47.8,232.7,48.7,232.5,49.8z"/>
				</defs>
				<clipPath id="SVGID_20_">
					<use xlink:href="#SVGID_19_"  style="overflow:visible;"/>
				</clipPath>
				<rect x="232.2" y="45.9" class="st62" width="0.5" height="7.9"/>
				<rect x="232.8" y="45.9" class="st63" width="1.8" height="7.9"/>
				<rect x="234.6" y="45.9" class="st64" width="1.8" height="7.9"/>
				<rect x="236.4" y="45.9" class="st65" width="1.8" height="7.9"/>
				<rect x="238.1" y="45.9" class="st66" width="1.8" height="7.9"/>
				<rect x="239.9" y="45.9" class="st66" width="1.3" height="7.9"/>
				<rect x="230" y="44.1" class="st67" width="1" height="11.4"/>
				<rect x="231" y="44.1" class="st62" width="1.8" height="11.4"/>
				<rect x="232.8" y="44.1" class="st63" width="1.8" height="11.4"/>
				<rect x="234.6" y="44.1" class="st64" width="1.8" height="11.4"/>
				<rect x="236.4" y="44.1" class="st65" width="1.8" height="11.4"/>
				<rect x="238.1" y="44.1" class="st66" width="1.8" height="11.4"/>
				<rect x="239.9" y="44.1" class="st66" width="1.8" height="11.4"/>
				<rect x="241.7" y="44.1" class="st68" width="1.8" height="11.4"/>
				<rect x="243.5" y="44.1" class="st69" width="0.8" height="11.4"/>
			</g>
		</g>
		<g>
			<g>
				<defs>
					<path id="SVGID_21_" d="M255.3,44.5l-1,1.8c-0.5-0.3-1.1-0.4-1.7-0.4c-0.8,0-1.5,0.3-2.2,0.9c-0.6,0.6-1,1.4-1.2,2.3l-1.3,6.2
						h-2.2l2.3-10.8h2.2l-0.2,1.1c1.1-0.9,2.2-1.4,3.4-1.4C254.1,44.1,254.8,44.2,255.3,44.5z"/>
				</defs>
				<clipPath id="SVGID_22_">
					<use xlink:href="#SVGID_21_"  style="overflow:visible;"/>
				</clipPath>
				<rect x="245.8" y="44.1" class="st70" width="1.3" height="11.1"/>
				<rect x="247.1" y="44.1" class="st71" width="1.8" height="11.1"/>
				<rect x="248.9" y="44.1" class="st71" width="1.8" height="11.1"/>
				<rect x="250.7" y="44.1" class="st72" width="1.8" height="11.1"/>
				<rect x="252.5" y="44.1" class="st73" width="1.8" height="11.1"/>
				<rect x="254.3" y="44.1" class="st74" width="1" height="11.1"/>
			</g>
		</g>
		<g>
			<g>
				<defs>
					<path id="SVGID_23_" d="M258.5,53.8c0.6,0,1-0.1,1.4-0.4c0.4-0.3,0.6-0.7,0.7-1.1c0.1-0.5,0-0.9-0.3-1.2
						c-0.3-0.3-0.8-0.6-1.5-0.9c-1.8-0.7-2.6-1.8-2.3-3.1c0.2-0.8,0.6-1.5,1.4-2c0.8-0.5,1.6-0.8,2.5-0.8c0.6,0,1.2,0.1,1.6,0.4
						c0.5,0.3,0.8,0.7,1,1.2l-1.7,1c-0.2-0.6-0.6-0.9-1.3-0.9c-0.4,0-0.7,0.1-0.9,0.3c-0.3,0.2-0.4,0.4-0.5,0.7
						c-0.1,0.4,0,0.7,0.3,0.9c0.3,0.3,0.7,0.5,1.4,0.8c2,0.8,2.8,2,2.5,3.5c-0.2,1-0.7,1.8-1.6,2.5c-0.8,0.6-1.9,1-3.2,1
						c-0.8,0-1.5-0.2-2.2-0.6c-0.6-0.4-1.1-1-1.3-1.8l1.9-1.1C256.9,53.2,257.5,53.8,258.5,53.8z"/>
				</defs>
				<clipPath id="SVGID_24_">
					<use xlink:href="#SVGID_23_"  style="overflow:visible;"/>
				</clipPath>
				<rect x="254.7" y="44.1" class="st75" width="1.4" height="11.4"/>
				<rect x="256.1" y="44.1" class="st76" width="1.8" height="11.4"/>
				<rect x="257.8" y="44.1" class="st77" width="1.8" height="11.4"/>
				<rect x="259.6" y="44.1" class="st78" width="1.8" height="11.4"/>
				<rect x="261.4" y="44.1" class="st79" width="1.8" height="11.4"/>
				<path class="st79" d="M263.2,55.5V44.1V55.5z"/>
			</g>
		</g>
	</g>
</g>
<g>
	<path class="st80" d="M115.4,64.4c0.7,0,1.3,0.3,1.8,0.9c0.5,0.6,0.7,1.3,0.7,2.3c0,0.9-0.2,1.7-0.7,2.3c-0.5,0.6-1.1,0.9-1.8,0.9
		c-0.7,0-1.3-0.3-1.8-0.9c-0.5-0.6-0.7-1.3-0.7-2.3c0-1,0.2-1.7,0.7-2.3C114,64.7,114.6,64.4,115.4,64.4z M115.4,65.9
		c-0.3,0-0.6,0.1-0.7,0.4c-0.2,0.3-0.3,0.7-0.3,1.2c0,0.5,0.1,0.9,0.3,1.2c0.2,0.3,0.4,0.4,0.7,0.4c0.6,0,1-0.6,1-1.7
		c0-0.5-0.1-0.9-0.3-1.1C115.9,66,115.7,65.9,115.4,65.9z"/>
	<path class="st80" d="M121.7,66.2v0.5c0.3-0.4,0.7-0.7,1.1-0.7c0.5,0,0.8,0.2,1.1,0.6c0.2,0.3,0.2,0.7,0.2,1.2v2.6h-1.4v-2.4
		c0-0.5-0.2-0.7-0.5-0.7c-0.4,0-0.5,0.2-0.5,0.7v2.4h-1.4v-4.3H121.7z"/>
	<path class="st80" d="M128.1,64.5v6h-1.4v-6H128.1z"/>
	<path class="st80" d="M132.1,64.5v1.2h-1.4v-1.2H132.1z M132.1,66.2v4.3h-1.4v-4.3H132.1z"/>
	<path class="st80" d="M136,66.2v0.5c0.3-0.4,0.7-0.7,1.1-0.7c0.5,0,0.8,0.2,1.1,0.6c0.2,0.3,0.2,0.7,0.2,1.2v2.6h-1.4v-2.4
		c0-0.5-0.2-0.7-0.5-0.7c-0.4,0-0.5,0.2-0.5,0.7v2.4h-1.4v-4.3H136z"/>
	<path class="st80" d="M143.5,69.2h1.3c-0.1,0.3-0.2,0.5-0.4,0.8c-0.3,0.4-0.8,0.7-1.5,0.7c-0.6,0-1.1-0.2-1.5-0.6
		c-0.4-0.4-0.6-1-0.6-1.6c0-0.6,0.2-1.1,0.5-1.5c0.4-0.5,0.9-0.8,1.5-0.8c0.6,0,1.1,0.2,1.4,0.7c0.4,0.5,0.5,1.1,0.5,1.8v0.1h-2.6
		c0,0.6,0.3,0.9,0.7,0.9C143.1,69.6,143.3,69.4,143.5,69.2z M142.2,67.9h1.3c0-0.5-0.2-0.7-0.6-0.7
		C142.5,67.1,142.3,67.4,142.2,67.9z"/>
	<path class="st80" d="M155,64.5v1.5h-1.4v4.4h-1.5v-4.4h-1.4v-1.5H155z"/>
	<path class="st80" d="M161.1,66.2v4.3h-1.3v-0.5c-0.3,0.4-0.6,0.7-1.1,0.7c-0.5,0-0.8-0.2-1.1-0.6c-0.2-0.3-0.2-0.6-0.2-1.2v-2.7
		h1.4v2.2c0,0.3,0,0.5,0,0.6c0.1,0.2,0.2,0.3,0.5,0.3c0.2,0,0.3-0.1,0.4-0.2c0.1-0.1,0.1-0.4,0.1-0.7v-2.2H161.1z"/>
	<path class="st80" d="M166,66.2v1h-0.7v1.5c0,0.3,0,0.4,0.1,0.5s0.2,0.1,0.4,0.1c0.1,0,0.2,0,0.3,0v1.2c-0.3,0-0.5,0-0.7,0
		c-0.6,0-1.1-0.2-1.3-0.6c-0.1-0.2-0.1-0.5-0.1-0.9v-1.9h-0.6v-1h0.6v-1.3h1.4v1.3H166z"/>
	<path class="st80" d="M170.2,66.1c0.6,0,1,0.2,1.4,0.6c0.4,0.4,0.5,1,0.5,1.6c0,0.7-0.2,1.2-0.6,1.6c-0.4,0.4-0.8,0.6-1.4,0.6
		c-0.6,0-1.1-0.2-1.4-0.6c-0.4-0.4-0.5-1-0.5-1.6c0-0.7,0.2-1.2,0.6-1.7C169.1,66.3,169.6,66.1,170.2,66.1z M170.2,67.2
		c-0.4,0-0.6,0.4-0.6,1.1c0,0.7,0.2,1.1,0.6,1.1c0.4,0,0.6-0.4,0.6-1.1c0-0.3,0-0.6-0.1-0.8C170.6,67.4,170.4,67.2,170.2,67.2z"/>
	<path class="st80" d="M177.3,66.1v1.5c-0.2-0.1-0.4-0.1-0.5-0.1c-0.4,0-0.7,0.2-0.8,0.6c0,0.1-0.1,0.3-0.1,0.5v2h-1.4v-4.3h1.3v0.7
		c0.2-0.5,0.6-0.8,1-0.8C177,66.1,177.1,66.1,177.3,66.1z"/>
	<path class="st80" d="M180.9,64.5v1.2h-1.4v-1.2H180.9z M180.9,66.2v4.3h-1.4v-4.3H180.9z"/>
	<path class="st80" d="M184.9,66.2v0.5c0.3-0.4,0.7-0.7,1.1-0.7c0.5,0,0.8,0.2,1.1,0.6c0.2,0.3,0.2,0.7,0.2,1.2v2.6H186v-2.4
		c0-0.5-0.2-0.7-0.5-0.7c-0.4,0-0.5,0.2-0.5,0.7v2.4h-1.4v-4.3H184.9z"/>
	<path class="st80" d="M193.6,66.2v3.7c0,0.6-0.1,1-0.3,1.3c-0.3,0.5-0.8,0.8-1.6,0.8c-0.8,0-1.3-0.2-1.6-0.6
		c-0.2-0.2-0.3-0.5-0.3-0.9h1.4c0.1,0.3,0.2,0.4,0.5,0.4c0.2,0,0.3-0.1,0.4-0.2s0.1-0.3,0.1-0.6v-0.5c-0.3,0.4-0.6,0.5-1,0.5
		c-0.5,0-0.8-0.2-1.1-0.5c-0.3-0.4-0.4-0.9-0.4-1.5c0-0.6,0.1-1.1,0.4-1.5s0.6-0.6,1.1-0.6c0.2,0,0.4,0,0.6,0.1
		c0.2,0.1,0.3,0.3,0.4,0.5v-0.5H193.6z M191.7,67.3c-0.4,0-0.6,0.3-0.6,0.9c0,0.6,0.2,0.9,0.6,0.9c0.4,0,0.6-0.3,0.6-0.9
		c0-0.3-0.1-0.5-0.2-0.6C192,67.3,191.9,67.3,191.7,67.3z"/>
	<path class="st80" d="M203.6,70.5h-1.4c0-0.1,0-0.3-0.1-0.4c-0.3,0.3-0.7,0.5-1.2,0.5c-0.4,0-0.7-0.1-0.9-0.4
		c-0.2-0.2-0.3-0.6-0.3-1c0-0.6,0.2-1,0.7-1.2c0.2-0.1,0.5-0.2,1-0.2c0.3,0,0.4-0.1,0.5-0.1c0.1,0,0.1,0,0.2-0.1
		c0.1-0.1,0.1-0.2,0.1-0.3c0-0.2-0.2-0.4-0.5-0.4c-0.2,0-0.3,0-0.4,0.1c-0.1,0.1-0.1,0.2-0.1,0.3h-1.3c0-1,0.6-1.4,1.8-1.4
		c0.6,0,1,0.1,1.2,0.3c0.2,0.1,0.4,0.3,0.4,0.5c0.1,0.2,0.1,0.5,0.1,0.8v0.1c0,0.1,0,0.3,0,0.5c0,0,0,0.2,0,0.6l0,0.4
		c0,0.4,0,0.7,0.1,0.9C203.6,70.3,203.6,70.4,203.6,70.5z M202.2,68.8v-0.3c-0.1,0.1-0.3,0.2-0.6,0.2c-0.2,0.1-0.4,0.2-0.4,0.4
		c0,0.3,0.1,0.4,0.4,0.4c0.3,0,0.5-0.1,0.6-0.4C202.2,69.1,202.2,69,202.2,68.8z"/>
	<path class="st80" d="M208.4,66.2v1h-0.7v1.5c0,0.3,0,0.4,0.1,0.5s0.2,0.1,0.4,0.1c0.1,0,0.2,0,0.3,0v1.2c-0.3,0-0.5,0-0.7,0
		c-0.6,0-1.1-0.2-1.3-0.6c-0.1-0.2-0.1-0.5-0.1-0.9v-1.9h-0.6v-1h0.6v-1.3h1.4v1.3H208.4z"/>
	<path class="st80" d="M215.9,64.5v1.2h-1.4v-1.2H215.9z M215.9,66.2v4.3h-1.4v-4.3H215.9z"/>
	<path class="st80" d="M220.8,66.2v1h-0.7v1.5c0,0.3,0,0.4,0.1,0.5s0.2,0.1,0.4,0.1c0.1,0,0.2,0,0.3,0v1.2c-0.3,0-0.5,0-0.7,0
		c-0.6,0-1.1-0.2-1.3-0.6c-0.1-0.2-0.1-0.5-0.1-0.9v-1.9h-0.6v-1h0.6v-1.3h1.4v1.3H220.8z"/>
	<path class="st80" d="M226.4,67.4h-1.2c0-0.1-0.1-0.3-0.1-0.3c-0.1-0.1-0.2-0.1-0.3-0.1c-0.3,0-0.4,0.1-0.4,0.3
		c0,0.1,0,0.2,0.1,0.2c0.1,0,0.3,0.1,0.7,0.2c0.5,0.1,0.9,0.3,1.1,0.5s0.3,0.5,0.3,0.9c0,0.5-0.2,0.8-0.5,1.1
		c-0.3,0.3-0.7,0.4-1.3,0.4c-1,0-1.6-0.4-1.8-1.1c0-0.1-0.1-0.3-0.1-0.5h1.3c0,0.3,0.2,0.5,0.5,0.5c0.3,0,0.4-0.1,0.4-0.4
		c0-0.1,0-0.2-0.1-0.2c-0.1,0-0.3-0.1-0.6-0.2c-0.5-0.1-0.9-0.3-1-0.4c-0.3-0.2-0.5-0.5-0.5-1c0-0.4,0.1-0.8,0.4-1s0.7-0.4,1.3-0.4
		c0.7,0,1.2,0.2,1.5,0.6C226.3,66.8,226.4,67.1,226.4,67.4z"/>
	<path class="st80" d="M232.7,64.5h2.5c0.5,0,0.9,0.1,1.1,0.2c0.4,0.2,0.6,0.7,0.6,1.3c0,0.5-0.2,0.9-0.6,1.2c0,0,0,0,0.1,0
		c0.5,0.3,0.8,0.7,0.8,1.4c0,0.7-0.2,1.2-0.7,1.5c-0.3,0.2-0.7,0.3-1.2,0.3h-2.6V64.5z M234.2,65.9v0.9h0.9c0.3,0,0.5-0.1,0.5-0.4
		c0-0.3-0.2-0.5-0.5-0.5H234.2z M234.2,68v1.1h0.9c0.4,0,0.6-0.2,0.6-0.6c0-0.4-0.2-0.6-0.6-0.6H234.2z"/>
	<path class="st80" d="M242.1,69.2h1.3c-0.1,0.3-0.2,0.5-0.4,0.8c-0.3,0.4-0.8,0.7-1.5,0.7c-0.6,0-1.1-0.2-1.5-0.6
		c-0.4-0.4-0.6-1-0.6-1.6c0-0.6,0.2-1.1,0.5-1.5c0.4-0.5,0.9-0.8,1.5-0.8c0.6,0,1.1,0.2,1.4,0.7c0.4,0.5,0.5,1.1,0.5,1.8v0.1h-2.6
		c0,0.6,0.3,0.9,0.7,0.9C241.8,69.6,242,69.4,242.1,69.2z M240.8,67.9h1.3c0-0.5-0.2-0.7-0.6-0.7C241.1,67.1,240.9,67.4,240.8,67.9z
		"/>
	<path class="st80" d="M249.1,67.4h-1.2c0-0.1-0.1-0.3-0.1-0.3c-0.1-0.1-0.2-0.1-0.3-0.1c-0.3,0-0.4,0.1-0.4,0.3
		c0,0.1,0,0.2,0.1,0.2c0.1,0,0.3,0.1,0.7,0.2c0.5,0.1,0.9,0.3,1.1,0.5s0.3,0.5,0.3,0.9c0,0.5-0.2,0.8-0.5,1.1
		c-0.3,0.3-0.7,0.4-1.3,0.4c-1,0-1.6-0.4-1.8-1.1c0-0.1-0.1-0.3-0.1-0.5h1.3c0,0.3,0.2,0.5,0.5,0.5c0.3,0,0.4-0.1,0.4-0.4
		c0-0.1,0-0.2-0.1-0.2c-0.1,0-0.3-0.1-0.6-0.2c-0.5-0.1-0.9-0.3-1-0.4c-0.3-0.2-0.5-0.5-0.5-1c0-0.4,0.1-0.8,0.4-1s0.7-0.4,1.3-0.4
		c0.7,0,1.2,0.2,1.5,0.6C249,66.8,249.1,67.1,249.1,67.4z"/>
	<path class="st80" d="M253.9,66.2v1h-0.7v1.5c0,0.3,0,0.4,0.1,0.5s0.2,0.1,0.4,0.1c0.1,0,0.2,0,0.3,0v1.2c-0.3,0-0.5,0-0.7,0
		c-0.6,0-1.1-0.2-1.3-0.6c-0.1-0.2-0.1-0.5-0.1-0.9v-1.9h-0.6v-1h0.6v-1.3h1.4v1.3H253.9z"/>
</g>
<path class="st81" d="M68.8,40c0,0,0.4-0.7,1.8,0c1.5,0.7,7,3.4,10,3.5c3,0.2,5.1,0.7,9.8-2.1c4.6-2.8,13-10.9,13-10.9
	s0.5-0.5,1.2,0.2c0.6,0.7-2.6,3.7-2.6,3.7s-6.4,6.6-9,11.9c-2.6,5.3-3.3,8.6-3.9,13.6c-0.6,4.9-2.2,16.9-2.2,16.9s-0.1,1.2-1.7,0.9
	s-1.1-2.5-1.1-2.5s2.4-12.5,1.6-16.9s-2.2-9.8-13-15.2l-2.8-1.6C69.6,41.4,68.5,40.8,68.8,40z"/>
<path class="st81" d="M80.9,37.9c0-0.3,0.1-1.1,0.8-1.9c0.6-0.7,1.3-1,1.5-1c0.1,0,0.6-0.2,1.3-0.1c0.3,0,2.2,0.2,3.1,1.8
	c0.1,0.2,0.7,1.3,0.4,2.5c-0.4,1.5-2,2.3-3.4,2.3c-1.4,0-2.6-0.8-3.2-1.9C81,38.9,80.9,38.3,80.9,37.9z"/>
<path class="st81" d="M62,56.2c0,0,0.2-0.4,1,0c0.8,0.4,3.7,1.8,5.3,1.9s2.7,0.4,5.2-1.1c2.5-1.5,6.9-5.8,6.9-5.8s0.3-0.3,0.6,0.1
	c0.3,0.4-1.4,2-1.4,2s-3.4,3.5-4.8,6.3s-1.7,4.6-2.1,7.2c-0.3,2.6-1.2,9-1.2,9s-0.1,0.7-0.9,0.5s-0.6-1.3-0.6-1.3s1.3-6.6,0.8-9
	c-0.4-2.4-1.2-5.2-6.9-8.1l-1.5-0.9C62.5,56.9,61.9,56.7,62,56.2z"/>
<path class="st81" d="M68.5,55.1c0-0.2,0.1-0.6,0.4-1c0.3-0.4,0.7-0.5,0.8-0.5c0.1,0,0.3-0.1,0.7-0.1c0.2,0,1.2,0.1,1.7,1
	c0.1,0.1,0.4,0.7,0.2,1.3C72,56.5,71.2,57,70.4,57c-0.7,0-1.4-0.4-1.7-1C68.5,55.6,68.5,55.3,68.5,55.1z"/>
</svg>
